<svg xmlns="http://www.w3.org/2000/svg" viewBox="0 0 563.48 451.27"><defs><style>.cls-1{fill:#fff;}</style></defs><g id="Layer_2" data-name="Layer 2"><g id="Capa_1" data-name="Capa 1"><path class="cls-1" d="M309.48,208.24c-37.62,49.82-60.93,91.69-69.29,124.45a4.23,4.23,0,0,0,5.13,5.13c32.77-8.36,74.64-31.67,124.45-69.28,37-27.9,64.75-53.73,65-54l-71.33-71.33C363.2,143.5,337.38,171.29,309.48,208.24Z"/><path class="cls-1" d="M561.24,77.17l-60.4-60.4a7.63,7.63,0,0,0-10.79,0L379.72,127.1l71.19,71.19L561.24,88A7.63,7.63,0,0,0,561.24,77.17Z"/><path class="cls-1" d="M477.6,5.32a18.18,18.18,0,0,0-25.7,0L373.67,83.55a18.17,18.17,0,0,0,0,25.71Z"/><path class="cls-1" d="M7.72,413.3c-7.8-17.5-6.82-37.76,2.81-58.58a127.23,127.23,0,0,1,21.74-31.87,32.54,32.54,0,0,0-7.88.9,19.81,19.81,0,1,1-9.16-38.54,70.73,70.73,0,0,1,55.16,9.4c1.88-.75,3.72-1.41,5.55-1.94,27.7-8.1,68,.75,90.5,52.35,1.89,4.34,3.52,9.34,5.25,14.63,9.48,29.14,15.75,37.18,27.91,35.85,10.48-1.14,16.23-8.42,18.74-12.65,5.36-9.1,5.88-20.42,1.43-31.05a19.81,19.81,0,0,1,36.54-15.3c9.32,22.28,7.92,46.51-3.86,66.47-10.66,18.07-28.36,29.7-48.56,31.9C156.21,440.06,141.23,394,134,371.92c-1.42-4.37-2.77-8.49-3.9-11.1-8.49-19.46-18.88-27.18-27.51-29.87,13.26,25.82,16,57.42,6.39,84.79-7.32,20.72-25.67,34.65-46.77,35.49a52,52,0,0,1-36.46-13A70.44,70.44,0,0,1,7.72,413.3Zm38.77-42c-3.27,7.07-6.38,17.3-2.57,25.83,4.14,9.31,10.4,14.73,16.74,14.48,4.87-.2,9.08-3.68,11-9.1,6.45-18.27,3.78-40.28-6.23-57.05C58.11,352.6,51,361.64,46.49,371.34Z"/></g></g></svg>