<svg xmlns="http://www.w3.org/2000/svg" viewBox="0 0 612 350.75"><defs><style>.cls-1{fill:red;}.cls-2{fill:#fff;}</style></defs><g id="Layer_2" data-name="Layer 2"><g id="Capa_1" data-name="Capa 1"><path class="cls-1" d="M175.38,0H612a0,0,0,0,1,0,0V350.75a0,0,0,0,1,0,0H175.38A175.38,175.38,0,0,1,0,175.38v0A175.38,175.38,0,0,1,175.38,0Z"/><path class="cls-2" d="M321.66,165.55c-21.24,28.13-34.4,51.78-39.12,70.28a2.38,2.38,0,0,0,2.89,2.9c18.51-4.72,42.15-17.88,70.29-39.13,20.86-15.75,36.56-30.34,36.72-30.48l-40.29-40.29C352,129,337.42,144.68,321.66,165.55Z"/><path class="cls-2" d="M463.85,91.53,429.74,57.42a4.32,4.32,0,0,0-6.1,0l-62.31,62.31,40.21,40.2,62.31-62.31A4.31,4.31,0,0,0,463.85,91.53Z"/><path class="cls-2" d="M416.61,51a10.25,10.25,0,0,0-14.51,0L357.92,95.13a10.26,10.26,0,0,0,0,14.52Z"/><path class="cls-2" d="M151.25,281.36c-4.41-9.88-3.86-21.33,1.58-33.09a72.11,72.11,0,0,1,12.28-18,18.11,18.11,0,0,0-4.45.51A11.19,11.19,0,1,1,155.49,209a39.93,39.93,0,0,1,31.15,5.31,32.44,32.44,0,0,1,3.13-1.09c15.65-4.58,38.42.42,51.11,29.56,1.07,2.45,2,5.27,3,8.26,5.35,16.46,8.89,21,15.76,20.25a14.12,14.12,0,0,0,10.58-7.15,19.45,19.45,0,0,0,.81-17.53A11.19,11.19,0,1,1,291.64,238c5.26,12.58,4.47,26.26-2.18,37.53a36.29,36.29,0,0,1-27.42,18c-26.93,2.93-35.4-23.06-39.46-35.55-.8-2.47-1.56-4.8-2.2-6.27-4.8-11-10.66-15.35-15.54-16.87,7.49,14.59,9.06,32.43,3.61,47.88-4.13,11.71-14.5,19.58-26.41,20a29.35,29.35,0,0,1-20.6-7.33A39.84,39.84,0,0,1,151.25,281.36Zm21.89-23.7c-1.85,4-3.6,9.77-1.45,14.59,2.34,5.26,5.87,8.32,9.45,8.18,2.76-.11,5.13-2.08,6.21-5.14,3.65-10.32,2.13-22.75-3.52-32.22A51.09,51.09,0,0,0,173.14,257.66Z"/></g></g></svg>